<svg version="1.1" xmlns="http://www.w3.org/2000/svg" viewBox="-266.23999710083007 -988.1600219726563 7070.7203125 1561.6000732421876"><desc>Created with Snap</desc><defs></defs><g><g><g transform="matrix(1.024,0,0,-1.024,0,0)"><path d="M327 0L154 0Q147 0 131 -1Q115 -2 98 -3Q81 -4 65 -5Q49 -6 42 -6L40 -2L43 36L48 40Q60 40 76 41Q92 43 101 49Q109 55 116 68Q123 81 126 107Q127 122 127 152Q128 182 128 241L128 451Q128 471 128 496Q128 522 126 547Q124 574 116 586Q109 598 101 604Q92 612 82 613Q73 614 48 614L43 618L40 656L42 660Q49 660 60 659Q72 658 84 657Q97 656 110 655Q123 654 134 654L210 654Q221 654 235 654Q249 655 263 655Q278 655 290 655Q302 656 309 656Q363 656 401 645Q440 634 464 614Q488 594 499 566Q511 538 511 504Q511 474 501 451Q492 428 476 410Q461 393 441 380Q421 368 400 359Q482 346 527 304Q572 262 572 188Q572 138 554 102Q536 67 503 44Q471 22 426 11Q381 0 327 0ZM294 302L239 302Q239 281 239 252Q239 223 239 196Q240 169 240 147Q241 125 242 117Q244 90 253 84Q262 78 277 78L298 78Q322 78 350 82Q379 87 404 99Q429 111 446 132Q463 153 463 186Q463 214 450 235Q437 257 414 272Q391 287 360 294Q330 302 294 302ZM256 369L265 369Q297 369 316 373Q336 377 359 394Q381 408 395 434Q409 461 409 497Q409 535 379 555Q349 576 294 576L244 576Q241 532 240 510Q239 489 239 472L239 410Q239 387 241 378Q243 369 256 369ZM940 660L942 656L939 618L935 614Q919 614 905 612Q891 611 881 604Q872 597 864 586Q857 575 857 547Q856 533 855 521Q855 509 854 493Q854 477 854 454Q854 431 854 395L854 251Q854 215 854 192Q854 170 854 155Q855 140 855 129Q856 119 857 107Q859 79 866 68Q873 57 881 50Q890 43 904 41Q919 40 935 40L939 36L942 -2L940 -6Q933 -6 917 -5Q901 -4 884 -3Q867 -2 851 -1Q835 0 828 0L769 0Q762 0 746 -1Q730 -2 713 -3Q696 -4 680 -5Q664 -6 657 -6L655 -2L658 36L663 40Q679 40 693 41Q708 43 716 50Q724 57 730 68Q737 79 741 107Q741 114 741 123Q742 133 742 147Q743 161 743 181Q743 201 743 231L743 394Q743 429 743 453Q743 477 742 494Q742 511 741 523Q741 535 740 547Q738 573 731 585Q724 597 716 604Q707 611 693 612Q679 614 663 614L658 618L655 656L657 660Q664 660 680 659Q696 658 713 657Q730 656 746 655Q762 654 769 654L828 654Q835 654 851 655Q867 656 884 657Q901 658 917 659Q933 660 940 660ZM1716 -2L1714 -6Q1707 -6 1691 -5Q1675 -4 1658 -3Q1641 -2 1625 -1Q1609 0 1602 0L1543 0Q1536 0 1520 -1Q1504 -2 1487 -3Q1470 -4 1454 -5Q1438 -6 1431 -6L1429 -2L1432 36L1436 40Q1452 40 1466 41Q1480 43 1490 50Q1499 57 1504 68Q1509 79 1514 107Q1515 114 1515 123Q1516 133 1516 147Q1517 161 1517 181Q1517 201 1517 231L1517 311L1221 311L1221 251Q1221 215 1221 192Q1221 170 1221 155Q1222 140 1222 129Q1223 119 1224 107Q1226 79 1233 68Q1240 57 1248 50Q1257 43 1271 41Q1286 40 1302 40L1306 36L1309 -2L1307 -6Q1300 -6 1284 -5Q1268 -4 1251 -3Q1234 -2 1218 -1Q1202 0 1195 0L1136 0Q1129 0 1113 -1Q1097 -2 1080 -3Q1063 -4 1047 -5Q1031 -6 1024 -6L1022 -2L1025 36L1030 40Q1046 40 1060 41Q1074 43 1083 50Q1091 57 1098 68Q1106 79 1108 107Q1108 114 1108 123Q1109 133 1109 147Q1110 161 1110 181Q1110 201 1110 231L1110 394Q1110 429 1110 453Q1110 477 1109 494Q1109 511 1108 523Q1108 535 1107 547Q1105 573 1098 585Q1091 597 1083 604Q1074 611 1060 612Q1046 614 1030 614L1025 618L1022 656L1024 660Q1031 660 1047 659Q1063 658 1080 657Q1097 656 1113 655Q1129 654 1136 654L1195 654Q1202 654 1218 655Q1234 656 1251 657Q1268 658 1284 659Q1300 660 1307 660L1309 656L1306 618L1302 614Q1288 614 1272 612Q1257 611 1248 604Q1240 597 1232 586Q1225 575 1224 547Q1223 533 1222 521Q1222 509 1221 493Q1221 477 1221 454Q1221 431 1221 395L1221 385L1517 385L1517 394Q1517 429 1517 453Q1517 477 1516 494Q1516 511 1515 523Q1515 535 1514 547Q1512 575 1505 586Q1498 597 1490 604Q1481 611 1466 612Q1452 614 1436 614L1432 618L1429 656L1431 660Q1438 660 1454 659Q1470 658 1487 657Q1504 656 1520 655Q1536 654 1543 654L1602 654Q1609 654 1625 655Q1641 656 1658 657Q1675 658 1691 659Q1707 660 1714 660L1716 656L1713 618L1708 614Q1692 614 1677 612Q1663 611 1655 604Q1647 597 1640 586Q1634 575 1630 547Q1629 533 1628 521Q1628 509 1628 493Q1628 477 1628 454Q1628 431 1628 395L1628 251Q1628 215 1628 192Q1628 170 1628 155Q1628 140 1628 129Q1629 119 1630 107Q1632 79 1639 68Q1647 57 1655 50Q1664 43 1678 41Q1692 40 1708 40L1713 36L1716 -2ZM1920 654L2084 654Q2098 654 2125 654Q2153 655 2182 656Q2211 657 2234 657Q2257 658 2262 658L2268 648L2263 519L2218 519L2214 523Q2212 542 2208 553Q2205 564 2190 569Q2175 574 2143 575Q2112 576 2056 576L1999 576L1998 567Q1997 553 1996 541Q1996 529 1995 513Q1995 497 1995 474Q1995 451 1995 415L1995 381Q2019 382 2041 381Q2063 381 2082 382Q2101 383 2114 385Q2128 388 2134 394Q2144 404 2144 422L2149 427L2186 429L2190 427Q2188 404 2186 387Q2185 370 2185 348Q2185 324 2186 303Q2188 283 2190 259L2186 257L2148 259L2144 262Q2144 287 2135 299Q2127 310 2089 311Q2052 313 2006 313L1995 313L1995 231Q1995 202 1995 183Q1996 164 1996 150Q1997 137 1998 125Q1999 113 2000 97Q2001 78 2020 78L2065 78Q2122 78 2154 80Q2187 82 2204 89Q2221 97 2228 111Q2236 125 2242 149L2246 153L2293 153L2274 6L2266 -4Q2261 -4 2241 -4Q2222 -3 2198 -2Q2174 -1 2150 -1Q2126 0 2112 0L1910 0Q1903 0 1887 -1Q1871 -2 1854 -3Q1837 -4 1821 -5Q1805 -6 1798 -6L1796 -2L1799 36L1804 40Q1820 40 1834 41Q1848 43 1857 50Q1865 57 1872 68Q1880 79 1882 107Q1882 114 1882 123Q1883 133 1883 147Q1884 161 1884 181Q1884 201 1884 231L1884 394Q1884 429 1884 453Q1884 477 1884 494Q1884 511 1883 523Q1883 535 1882 547Q1880 574 1872 586Q1865 598 1857 604Q1848 612 1834 613Q1820 614 1804 614L1799 618L1796 656L1798 660Q1805 660 1821 659Q1837 658 1855 657Q1874 656 1891 655Q1909 654 1920 654ZM2658 -2L2656 -6Q2648 -5 2633 -4Q2619 -3 2602 -2Q2586 -1 2570 -1Q2555 0 2544 0L2485 0Q2473 0 2457 -1Q2441 -1 2425 -2Q2409 -3 2394 -4Q2380 -5 2373 -6L2371 -2L2374 36L2379 40Q2417 40 2431 49Q2452 63 2457 107Q2458 124 2458 159Q2459 195 2459 231L2459 451Q2459 486 2458 506Q2457 527 2455 547Q2451 574 2446 586Q2442 598 2433 605Q2425 610 2413 612Q2402 614 2379 614L2374 618L2371 656L2373 660Q2399 657 2424 655Q2450 654 2465 654L2541 654Q2564 654 2593 655Q2623 656 2645 656Q2764 656 2825 611Q2886 567 2886 479Q2886 416 2849 364Q2813 313 2741 275Q2775 224 2798 192Q2822 160 2839 141Q2862 114 2882 96Q2902 78 2921 66Q2941 54 2962 48Q2983 42 3009 40L3015 36L3017 -2L3015 -6Q2977 -8 2949 -10Q2921 -11 2908 -11Q2855 -11 2813 18Q2772 48 2725 119Q2714 135 2701 155Q2689 175 2676 194Q2664 214 2653 232Q2642 250 2635 263L2570 263Q2570 229 2570 204Q2570 180 2570 162Q2571 144 2572 131Q2573 118 2574 107Q2578 61 2596 49Q2603 44 2614 42Q2625 40 2651 40L2655 36L2658 -2ZM2594 337L2621 337Q2694 337 2735 372Q2777 407 2777 469Q2777 525 2740 550Q2703 576 2622 576L2575 576Q2572 536 2571 514Q2570 492 2570 472L2570 374Q2570 353 2575 345Q2580 337 2594 337ZM3072 280L3401 280L3385 198L3057 198L3072 280ZM3832 665Q3909 665 3969 638Q4029 611 4070 565Q4111 519 4132 458Q4154 397 4154 330Q4154 266 4135 206Q4116 147 4078 100Q4041 54 3986 24Q3931 -6 3859 -10Q3910 -11 3949 -23Q3988 -34 4022 -48Q4057 -61 4091 -72Q4125 -83 4164 -83Q4178 -83 4197 -80Q4217 -76 4239 -63L4242 -65L4256 -93L4255 -97Q4232 -126 4199 -146Q4166 -166 4125 -166Q4091 -166 4055 -151Q4020 -135 3981 -117Q3942 -98 3900 -83Q3858 -67 3812 -67Q3773 -67 3736 -80Q3700 -93 3683 -108L3680 -107L3669 -68L3670 -65Q3692 -50 3729 -32Q3766 -14 3809 -11Q3735 -10 3679 17Q3623 44 3585 89Q3548 135 3529 195Q3510 255 3510 322Q3510 393 3532 455Q3554 518 3595 564Q3636 611 3696 638Q3756 665 3832 665ZM3831 72Q3880 72 3918 92Q3957 113 3983 147Q4009 182 4023 228Q4037 275 4037 328Q4037 382 4022 428Q4008 475 3980 509Q3953 543 3914 562Q3875 582 3826 582Q3778 582 3741 563Q3704 544 3679 510Q3654 476 3641 429Q3628 383 3628 329Q3628 270 3643 222Q3658 175 3685 141Q3712 108 3749 90Q3786 72 3831 72ZM4626 84L4623 86Q4596 43 4556 16Q4516 -11 4455 -11Q4427 -11 4400 -4Q4374 3 4352 18Q4331 33 4315 57Q4299 82 4292 117Q4290 126 4288 137Q4287 148 4286 165Q4286 183 4285 208Q4285 234 4285 272L4285 362Q4285 373 4280 384Q4275 395 4272 398Q4262 410 4247 412Q4232 414 4216 414L4213 418L4213 452L4216 455L4265 455Q4288 455 4314 455Q4340 456 4360 459L4395 464L4401 445Q4399 441 4398 430Q4397 420 4396 408Q4395 396 4395 385Q4395 374 4395 368Q4395 355 4394 336Q4394 318 4393 298Q4393 279 4392 261Q4392 243 4392 231Q4392 205 4394 178Q4396 152 4402 130Q4412 95 4432 78Q4453 62 4490 62Q4520 62 4543 72Q4567 82 4584 96Q4601 110 4612 126Q4623 143 4626 156L4626 256Q4626 302 4624 327Q4623 352 4621 366Q4619 379 4615 387Q4612 395 4609 398Q4598 410 4581 412Q4564 414 4554 414L4550 418L4550 452L4554 455L4572 455Q4582 455 4598 455Q4615 455 4633 455Q4651 456 4668 456Q4685 457 4697 459L4732 464L4738 445Q4733 416 4731 369Q4730 344 4729 328Q4729 313 4729 303Q4729 293 4729 287Q4729 282 4729 277L4729 195Q4729 140 4732 98Q4734 79 4737 67Q4740 56 4748 49Q4757 41 4769 39Q4781 38 4798 38L4802 34L4804 0L4802 -3Q4783 -1 4765 -1Q4747 0 4723 0Q4699 0 4672 -1Q4645 -1 4620 -3L4614 17Q4617 28 4620 46Q4624 65 4626 84ZM5302 293L5294 255L5270 237Q5216 237 5163 236Q5111 235 5056 235L4974 235Q4973 228 4973 221Q4973 215 4973 209Q4973 183 4982 157Q4991 131 5010 110Q5030 90 5060 77Q5090 65 5133 65Q5164 65 5198 73Q5233 82 5263 96L5280 89L5280 53L5270 42Q5246 23 5199 6Q5153 -11 5099 -11Q5046 -11 5002 6Q4959 24 4927 56Q4896 88 4878 132Q4861 176 4861 230Q4861 285 4879 330Q4897 375 4928 407Q4960 439 5002 457Q5045 475 5094 475Q5120 475 5152 468Q5185 461 5215 441Q5245 422 5269 386Q5293 351 5302 293ZM5095 400Q5046 400 5016 370Q4987 341 4979 302L5029 302Q5064 302 5098 303Q5132 305 5167 305Q5180 305 5186 312Q5192 320 5192 328Q5192 358 5163 379Q5134 400 5095 400ZM5532 355L5535 354Q5545 373 5557 394Q5570 415 5586 433Q5602 451 5622 463Q5643 475 5669 475Q5677 475 5688 473Q5700 472 5711 469Q5723 466 5734 462Q5745 458 5751 453L5758 447L5746 339L5703 339Q5700 351 5687 363Q5675 376 5649 376Q5626 376 5607 364Q5588 353 5574 336Q5560 319 5552 299Q5544 280 5544 264L5544 195Q5544 157 5544 138Q5545 119 5546 105Q5548 83 5551 69Q5555 56 5563 49Q5567 45 5575 42Q5584 40 5593 39Q5602 38 5610 38Q5619 38 5624 38L5629 33L5631 0L5629 -4Q5623 -4 5609 -3Q5595 -2 5579 -2Q5563 -1 5549 -1Q5535 0 5529 0L5465 0Q5458 0 5443 -1Q5429 -1 5413 -2Q5397 -2 5382 -3Q5368 -4 5361 -4L5360 0L5362 34L5365 38Q5382 38 5397 39Q5412 41 5420 49Q5428 56 5431 67Q5435 78 5437 105Q5438 117 5438 137Q5438 157 5438 193L5438 266Q5438 287 5438 301Q5438 316 5437 327Q5437 338 5436 347Q5436 356 5435 366Q5433 376 5429 385Q5425 394 5422 397Q5412 410 5397 412Q5382 414 5366 414L5362 418L5362 452L5366 455L5384 455Q5406 455 5441 455Q5476 456 5502 459L5537 464L5543 445Q5537 426 5534 402Q5532 378 5532 355ZM6167 131L6069 -116Q6057 -146 6037 -171Q6018 -195 5993 -213Q5968 -231 5940 -243Q5912 -254 5883 -258Q5875 -260 5864 -260Q5854 -260 5834 -260L5827 -258L5824 -207L5828 -202L5842 -202Q5854 -202 5868 -200Q5882 -197 5895 -190Q5924 -176 5948 -150Q5973 -124 5982 -100L6010 -25L5930 158Q5925 169 5914 197Q5903 225 5889 258Q5875 292 5859 325Q5844 358 5831 380Q5821 396 5808 405Q5796 414 5775 416L5769 421L5769 455L5773 459Q5790 457 5809 455Q5828 453 5844 453L5923 453Q5938 453 5959 455Q5981 457 5999 459L6003 455L6003 423L5999 419Q5980 417 5966 407Q5953 398 5953 380Q5953 368 5961 340Q5970 313 5981 282Q5993 251 6003 224Q6014 198 6017 189L6060 68L6110 189Q6117 205 6127 229Q6137 254 6146 281Q6156 308 6163 334Q6170 360 6170 380Q6170 402 6155 409Q6140 417 6123 419L6119 423L6119 455L6123 459Q6142 455 6159 454Q6176 453 6191 453L6272 453Q6289 453 6305 455Q6322 457 6341 459L6345 455L6345 421L6339 416Q6322 414 6309 406Q6297 398 6286 380Q6271 356 6252 318Q6234 281 6216 243Q6199 205 6185 174Q6171 143 6167 131Z" fill="#9c1f16" style=""></path></g></g></g></svg>