<svg version="1.1" xmlns="http://www.w3.org/2000/svg" viewBox="-273.40800018310546 -3809.280218505859 8365.05625 4382.72026977539"><desc>Created with Snap</desc><defs></defs><g><g transform="matrix(74.88,0,0,74.88,2711.04,-3500.8821)"><g display="none"><rect x="-331.365" y="-102.667" display="inline" fill="#ffd348" width="473.333" height="236" style=""></rect></g><g display="none"><g display="inline"><g><path d="M30,1.984v28H2v-28H30 M32-0.016H0v32h32V-0.016L32-0.016z" fill="#ffd348" style=""></path></g></g><g display="inline"><g><polygon fill="#ffd348" points="10.918,9.09 15.398,16.831 6.439,16.831    " style=""></polygon></g><g><polygon fill="#ffd348" points="21.082,5.59 25.561,13.331 16.602,13.331    " style=""></polygon></g><g><polygon fill="#ffd348" points="10.918,18.669 15.398,26.41 6.439,26.41    " style=""></polygon></g><g><polygon points="21.082,15.169 25.561,22.91 16.602,22.91    " fill="#ffd348" style=""></polygon></g></g></g><g display="none"><g display="inline"><path fill="#ffd348" d="M31,0.984v30H1v-30H31 M32-0.016H0v32h32V-0.016L32-0.016z" style=""></path></g><g display="inline"><path fill="#ffd348" d="M10.918,11.087l2.745,4.744h-5.49L10.918,11.087 M10.918,9.09l-4.479,7.741h8.958L10.918,9.09L10.918,9.09    z" style=""></path></g><g display="inline"><path fill="#ffd348" d="M21.082,7.587l2.745,4.744h-5.49L21.082,7.587 M21.082,5.59l-4.479,7.741h8.958L21.082,5.59L21.082,5.59z" style=""></path></g><g display="inline"><path fill="#ffd348" d="M10.918,20.666l2.745,4.744h-5.49L10.918,20.666 M10.918,18.669L6.439,26.41h8.958L10.918,18.669    L10.918,18.669z" style=""></path></g><g display="inline"><path fill="#ffd348" d="M21.082,17.166l2.745,4.744h-5.49L21.082,17.166 M21.082,15.169l-4.479,7.741h8.958L21.082,15.169    L21.082,15.169z" style=""></path></g></g><g display="none"><g display="inline"><g><rect x="0.5" y="0.484" fill="#ffd348" width="31" height="31" style=""></rect></g><g><g><path d="M31,0.984v30H1v-30H31 M32-0.016H0v32h32V-0.016L32-0.016z" fill="#ffd348" style=""></path></g></g></g><g display="inline"><g><polygon fill="#ffd348" points="7.307,16.331 10.918,10.088 14.53,16.331    " style=""></polygon></g><g><g><path d="M10.918,11.087l2.745,4.744h-5.49L10.918,11.087 M10.918,9.09l-4.479,7.741h8.958L10.918,9.09L10.918,9.09z" fill="#ffd348" style=""></path></g></g></g><g display="inline"><g><polygon fill="#ffd348" points="17.47,12.831 21.082,6.588 24.693,12.831    " style=""></polygon></g><g><path d="M21.082,7.587l2.745,4.744h-5.49L21.082,7.587 M21.082,5.59l-4.479,7.741h8.958L21.082,5.59L21.082,5.59z" fill="#ffd348" style=""></path></g></g><g display="inline"><g><polygon fill="#ffd348" points="7.307,25.91 10.918,19.667 14.53,25.91    " style=""></polygon></g><g><g><path d="M10.918,20.666l2.745,4.744h-5.49L10.918,20.666 M10.918,18.669L6.439,26.41h8.958L10.918,18.669L10.918,18.669z" fill="#ffd348" style=""></path></g></g></g><g display="inline"><g><polygon fill="#ffd348" points="17.47,22.41 21.082,16.167 24.693,22.41    " style=""></polygon></g><g><path d="M21.082,17.166l2.745,4.744h-5.49L21.082,17.166 M21.082,15.169l-4.479,7.741h8.958L21.082,15.169L21.082,15.169z" fill="#ffd348" style=""></path></g></g></g><g><g><path d="M0,31.984h32v-32H0V31.984z M2,1.984h28v28H2V1.984z" fill="#ffd348" style=""></path><polygon points="6.439,16.831 15.398,16.831 10.918,9.09   " fill="#ffd348" style=""></polygon><polygon points="16.602,13.331 25.561,13.331 21.082,5.59   " fill="#ffd348" style=""></polygon><polygon points="6.439,26.41 15.398,26.41 10.918,18.669   " fill="#ffd348" style=""></polygon><polygon points="16.602,22.91 25.561,22.91 21.082,15.169   " fill="#ffd348" style=""></polygon></g></g><desc>Created with Snap</desc><defs></defs></g><g><g transform="matrix(1.024,0,0,-1.024,0,0)"><path d="M418 0L33 0L33 40Q67 41 87 46Q108 51 119 63Q131 75 135 97Q139 119 139 154L139 616Q139 651 136 672Q133 694 123 706Q114 719 97 723Q81 728 54 730L54 770L375 770Q526 770 607 721Q689 673 689 583Q689 464 518 415L518 411Q573 411 617 395Q662 380 693 352Q724 324 741 286Q758 248 758 203Q758 152 733 114Q709 76 663 50Q574 0 418 0ZM425 61Q586 61 586 206Q586 295 528 336Q498 357 450 366Q403 375 334 375L286 375L286 175Q286 113 318 87Q350 61 425 61ZM286 435L345 435Q390 435 423 443Q456 452 479 468Q527 501 527 571Q527 644 491 676Q455 709 375 709L304 709Q286 709 286 692L286 435ZM1190 40L1190 0L833 0L833 40Q867 41 887 46Q908 52 919 67Q930 82 934 109Q938 137 938 184L938 586Q938 628 934 655Q931 683 921 699Q911 715 892 721Q874 728 843 730L843 770L1180 770L1180 730Q1149 728 1130 721Q1112 715 1102 699Q1092 683 1088 655Q1085 628 1085 586L1085 184Q1085 137 1088 109Q1092 82 1103 67Q1115 52 1135 46Q1156 41 1190 40ZM2031 609L2031 161Q2031 123 2034 99Q2038 76 2049 63Q2061 51 2081 46Q2102 41 2136 40L2136 0L1769 0L1769 40Q1806 41 1828 46Q1851 51 1863 63Q1876 75 1880 97Q1884 119 1884 154L1884 363L1513 363L1513 161Q1513 123 1517 99Q1521 76 1533 63Q1545 51 1567 46Q1590 41 1627 40L1627 0L1261 0L1261 40Q1295 41 1315 46Q1336 51 1347 63Q1358 75 1362 97Q1366 119 1366 154L1366 616Q1366 651 1362 672Q1359 694 1349 706Q1339 719 1320 723Q1302 728 1272 730L1272 770L1617 770L1617 730Q1583 729 1562 724Q1542 719 1531 706Q1520 693 1516 670Q1513 647 1513 609L1513 425L1884 425L1884 616Q1884 651 1880 672Q1876 694 1865 706Q1854 719 1833 723Q1813 728 1779 730L1779 770L2125 770L2125 730Q2095 729 2076 724Q2058 719 2048 706Q2038 693 2034 670Q2031 647 2031 609ZM2458 680L2458 426Q2522 426 2561 430Q2600 434 2621 446Q2643 459 2652 483Q2661 507 2666 548L2703 548L2703 255L2666 255Q2660 295 2650 319Q2640 343 2618 355Q2596 368 2558 371Q2521 375 2458 375L2458 169Q2458 137 2466 115Q2475 93 2495 79Q2515 66 2548 60Q2581 55 2629 55Q2686 55 2725 63Q2765 71 2791 91Q2817 111 2833 144Q2849 178 2860 229L2900 229L2884 0L2206 0L2206 40Q2239 41 2260 46Q2281 51 2292 63Q2303 75 2307 97Q2311 119 2311 154L2311 616Q2311 651 2307 672Q2304 694 2294 706Q2284 719 2265 723Q2247 728 2217 730L2217 770L2849 770L2856 574L2813 574Q2807 616 2794 643Q2781 671 2758 687Q2735 704 2698 710Q2662 717 2609 717L2496 717Q2470 717 2464 710Q2458 704 2458 680ZM3630 577Q3630 494 3582 438Q3534 382 3429 363L3661 97Q3685 69 3718 54Q3751 40 3785 40L3785 0L3548 0L3300 304Q3275 334 3256 344Q3238 355 3222 355L3222 159Q3222 122 3227 98Q3232 75 3247 62Q3262 49 3290 44Q3319 40 3367 40L3367 0L2970 0L2970 40Q3003 40 3023 44Q3044 49 3055 61Q3067 74 3071 96Q3075 119 3075 154L3075 616Q3075 651 3072 672Q3069 694 3059 706Q3049 719 3030 723Q3012 728 2981 730L2981 770L3327 770Q3472 770 3551 719Q3630 668 3630 577ZM3222 697L3222 415L3287 415Q3381 415 3427 451Q3474 488 3474 572Q3474 636 3435 675Q3396 714 3327 714L3240 714Q3222 714 3222 697ZM4141 243L3816 243L3816 336L4141 336L4141 243ZM4678 780Q4769 780 4848 749Q4927 718 4985 663Q5044 609 5077 535Q5111 462 5111 378Q5111 275 5060 188Q5010 102 4919 43Q4902 32 4886 23Q4871 15 4851 6Q4831 -3 4804 -13Q4778 -23 4741 -36Q4719 -44 4703 -50Q4688 -56 4676 -62Q4664 -67 4654 -73Q4645 -78 4636 -84L4636 -88Q4643 -87 4654 -87Q4665 -86 4675 -86Q4718 -86 4756 -96Q4795 -105 4832 -116Q4870 -127 4908 -137Q4946 -146 4988 -146Q5036 -146 5063 -129Q5090 -112 5105 -72L5142 -72Q5144 -85 5145 -96Q5146 -107 5146 -115Q5146 -146 5132 -173Q5118 -199 5093 -219Q5068 -238 5034 -249Q5000 -260 4961 -260Q4905 -260 4857 -241Q4809 -222 4765 -199Q4721 -176 4681 -157Q4641 -138 4602 -138Q4575 -138 4558 -147Q4541 -156 4527 -167Q4514 -177 4500 -186Q4487 -195 4468 -195Q4451 -195 4441 -187Q4431 -179 4431 -167Q4431 -150 4446 -136Q4462 -121 4504 -98L4630 -27Q4550 -20 4481 14Q4412 48 4361 102Q4311 156 4282 226Q4253 297 4253 377Q4253 462 4285 536Q4318 610 4375 664Q4432 718 4510 749Q4588 780 4678 780ZM4678 30Q4737 30 4785 54Q4833 79 4866 124Q4900 169 4918 233Q4937 297 4937 375Q4937 453 4918 516Q4900 579 4866 623Q4833 667 4785 691Q4737 715 4678 715Q4619 715 4572 691Q4526 668 4494 624Q4462 580 4444 517Q4427 454 4427 375Q4427 295 4444 231Q4462 167 4494 122Q4527 78 4573 54Q4620 30 4678 30ZM5621 262L5621 366Q5621 406 5619 429Q5617 453 5608 465Q5599 478 5581 482Q5564 487 5534 490L5534 530L5760 530L5760 227Q5760 166 5761 131Q5763 97 5767 80Q5770 67 5774 59Q5778 52 5787 47Q5796 43 5811 41Q5827 40 5852 40L5852 1L5653 -11L5642 78L5638 78Q5612 36 5565 13Q5518 -10 5460 -10Q5353 -10 5297 66Q5254 124 5254 231L5254 366Q5254 407 5252 430Q5250 454 5241 466Q5233 478 5216 482Q5199 487 5169 490L5169 530L5393 530L5393 247Q5393 146 5418 100Q5443 55 5498 55Q5557 55 5589 109Q5621 161 5621 262ZM6377 128L6405 93Q6314 -10 6178 -10Q6116 -10 6065 9Q6015 29 5979 64Q5943 100 5923 149Q5903 198 5903 258Q5903 320 5924 371Q5945 423 5983 460Q6022 498 6074 519Q6127 540 6190 540Q6296 540 6355 483Q6414 426 6414 323Q6414 307 6409 303Q6404 300 6381 300L6059 300Q6055 291 6055 267Q6055 169 6097 112Q6140 55 6213 55Q6255 55 6296 74Q6338 93 6377 128ZM6066 356L6211 356Q6251 356 6262 360Q6274 365 6274 382Q6274 426 6249 454Q6224 482 6186 482Q6143 482 6109 446Q6076 411 6066 356ZM6708 203L6708 155Q6708 116 6711 93Q6715 71 6726 59Q6737 47 6758 43Q6779 40 6814 40L6814 0L6480 0L6480 40Q6510 42 6528 46Q6546 50 6555 62Q6564 74 6566 96Q6569 119 6569 157L6569 279Q6569 341 6566 378Q6563 415 6553 435Q6543 455 6524 461Q6506 468 6476 468L6476 503L6676 540L6692 425L6696 425Q6723 478 6767 509Q6811 540 6860 540Q6898 540 6922 521Q6946 502 6946 473Q6946 441 6927 419Q6909 397 6877 397Q6862 397 6850 403Q6838 409 6828 416Q6819 424 6809 430Q6800 437 6790 437Q6771 437 6754 412Q6737 387 6726 345Q6718 315 6713 277Q6708 240 6708 203ZM7464 323L7235 -157Q7224 -179 7207 -198Q7191 -217 7170 -231Q7150 -244 7128 -252Q7106 -260 7084 -260Q7051 -260 7031 -244Q7011 -228 7011 -201Q7011 -176 7028 -162Q7046 -148 7085 -145Q7174 -138 7200 -89L7227 -37L7050 401Q7038 430 7029 447Q7021 464 7011 473Q7001 483 6988 486Q6975 489 6956 490L6956 530L7259 530L7259 490Q7220 490 7204 482Q7189 475 7189 455Q7189 447 7191 436Q7194 426 7198 415L7300 123L7304 123L7390 318Q7403 349 7412 369Q7421 390 7425 404Q7430 419 7432 428Q7434 437 7434 446Q7434 472 7419 481Q7405 490 7361 490L7361 530L7602 530L7602 490Q7582 490 7568 484Q7554 479 7539 462Q7525 445 7507 411Q7490 378 7464 323Z" fill="#9c1f16" style=""></path></g></g></g></svg>